<svg xmlns="http://www.w3.org/2000/svg" width="1280" height="640" viewBox="0 0 1280 640" role="img" aria-labelledby="title description">
  <title id="title">SuperCoding: Focus, Build, Verify</title>
  <desc id="description">SuperGoal targeting ring, SuperDev construction lattice, and SuperReview scan frame connected around an ASCII SuperCoding wordmark.</desc>
  <defs>
    <linearGradient id="signalFade" x1="0" y1="0" x2="1" y2="0">
      <stop offset="0" stop-color="#78e9c5" stop-opacity="0.92"/>
      <stop offset="1" stop-color="#78e9c5" stop-opacity="0.08"/>
    </linearGradient>
    <radialGradient id="targetWash" cx="0.5" cy="0.5" r="0.5">
      <stop offset="0" stop-color="#78e9c5" stop-opacity="0.09"/>
      <stop offset="1" stop-color="#78e9c5" stop-opacity="0"/>
    </radialGradient>
    <clipPath id="scannerClip">
      <rect x="1022" y="76" width="176" height="142"/>
    </clipPath>
    <line id="targetTick" x1="0" y1="-142" x2="0" y2="-132" stroke="#edf5f1" stroke-opacity="0.32"/>
  </defs>

  <rect width="1280" height="640" fill="#0a0d0c"/>
  <rect x="0" y="0" width="430" height="640" fill="url(#targetWash)"/>

  <g stroke="#edf5f1" stroke-opacity="0.055">
    <path d="M0 64H1280M0 192H1280M0 320H1280M0 448H1280M0 576H1280"/>
    <path d="M128 0V640M384 0V640M640 0V640M896 0V640M1152 0V640"/>
  </g>
  <g fill="#edf5f1" fill-opacity="0.08">
    <circle cx="64" cy="64" r="1"/><circle cx="192" cy="64" r="1"/><circle cx="320" cy="64" r="1"/>
    <circle cx="448" cy="192" r="1"/><circle cx="576" cy="192" r="1"/><circle cx="704" cy="192" r="1"/>
    <circle cx="832" cy="320" r="1"/><circle cx="960" cy="320" r="1"/><circle cx="1088" cy="320" r="1"/>
    <circle cx="1216" cy="448" r="1"/><circle cx="704" cy="576" r="1"/><circle cx="448" cy="576" r="1"/>
  </g>

  <g transform="translate(150 246)">
    <circle r="142" fill="none" stroke="#78e9c5" stroke-width="1.5" stroke-dasharray="164 28 72 36" transform="rotate(-18)"/>
    <circle r="116" fill="none" stroke="#78e9c5" stroke-opacity="0.42" stroke-dasharray="96 34 42 31" transform="rotate(31)"/>
    <circle r="79" fill="none" stroke="#78e9c5" stroke-opacity="0.76" stroke-dasharray="34 24 68 30" transform="rotate(-42)"/>
    <circle r="48" fill="none" stroke="#edf5f1" stroke-opacity="0.16" stroke-dasharray="2 7"/>
    <g>
      <use href="#targetTick" transform="rotate(0)"/><use href="#targetTick" transform="rotate(15)"/>
      <use href="#targetTick" transform="rotate(30)"/><use href="#targetTick" transform="rotate(45)"/>
      <use href="#targetTick" transform="rotate(60)"/><use href="#targetTick" transform="rotate(75)"/>
      <use href="#targetTick" transform="rotate(90)"/><use href="#targetTick" transform="rotate(105)"/>
      <use href="#targetTick" transform="rotate(120)"/><use href="#targetTick" transform="rotate(135)"/>
      <use href="#targetTick" transform="rotate(150)"/><use href="#targetTick" transform="rotate(165)"/>
      <use href="#targetTick" transform="rotate(180)"/><use href="#targetTick" transform="rotate(195)"/>
      <use href="#targetTick" transform="rotate(210)"/><use href="#targetTick" transform="rotate(225)"/>
      <use href="#targetTick" transform="rotate(240)"/><use href="#targetTick" transform="rotate(255)"/>
      <use href="#targetTick" transform="rotate(270)"/><use href="#targetTick" transform="rotate(285)"/>
      <use href="#targetTick" transform="rotate(300)"/><use href="#targetTick" transform="rotate(315)"/>
      <use href="#targetTick" transform="rotate(330)"/><use href="#targetTick" transform="rotate(345)"/>
    </g>
    <path d="M-170 0H170M0-170V170" fill="none" stroke="#edf5f1" stroke-opacity="0.12" stroke-dasharray="2 7"/>
    <path d="M-31-19V-31H-19M31-19V-31H19M-31 19V31H-19M31 19V31H19" fill="none" stroke="#78e9c5" stroke-width="1.4"/>
    <path d="M0 0L-54 71A89 89 0 0 0 43 77Z" fill="#78e9c5" fill-opacity="0.07"/>
    <circle r="3" fill="#78e9c5"/>
    <text x="0" y="58" text-anchor="middle" fill="#78e9c5" font-family="ui-monospace, SFMono-Regular, Menlo, Consolas, monospace" font-size="10" font-weight="700">FOCUS</text>
    <text x="0" y="190" text-anchor="middle" fill="#edf5f1" font-family="ui-monospace, SFMono-Regular, Menlo, Consolas, monospace" font-size="12" font-weight="700">SUPERGOAL</text>
  </g>

  <g fill="none" stroke-linecap="square">
    <path d="M289 244C470 145 756 395 938 412" stroke="#edf5f1" stroke-opacity="0.18" stroke-dasharray="3 9"/>
    <path d="M309 235L333 224" stroke="url(#signalFade)" stroke-width="3"/>
    <path d="M533 239L557 249" stroke="#78e9c5" stroke-opacity="0.52" stroke-width="3"/>
    <path d="M779 369L803 380" stroke="#78e9c5" stroke-opacity="0.72" stroke-width="3"/>
    <path d="M1027 337C1119 292 1138 253 1111 215" stroke="#edf5f1" stroke-opacity="0.18" stroke-dasharray="3 9"/>
    <path d="M1089 294L1098 279" stroke="#78e9c5" stroke-opacity="0.64" stroke-width="3"/>
    <path d="M1116 246L1115 229" stroke="#78e9c5" stroke-opacity="0.9" stroke-width="3"/>
  </g>
  <g fill="#89938f" font-family="ui-monospace, SFMono-Regular, Menlo, Consolas, monospace" font-size="9" font-weight="700" letter-spacing="1.5">
    <text x="474" y="190">SPEC</text>
    <text x="1131" y="282">DIFF</text>
  </g>

  <g aria-label="ASCII SuperCoding" font-family="ui-monospace, SFMono-Regular, Menlo, Consolas, monospace" font-size="18" font-weight="700" xml:space="preserve">
    <text x="346" y="205" fill="#edf5f1">#####  #   #  ####   #####  ####</text>
    <text x="346" y="228" fill="#edf5f1">#      #   #  #   #  #      #   #</text>
    <text x="346" y="251" fill="#edf5f1">#####  #   #  ####   ####   ####</text>
    <text x="346" y="274" fill="#edf5f1">    #  #   #  #      #      #  #</text>
    <text x="346" y="297" fill="#edf5f1">#####  #####  #      #####  #   #</text>

    <text x="346" y="335" fill="#78e9c5">#####   ###   ####   #####  #   #   ####</text>
    <text x="346" y="358" fill="#78e9c5">#      #   #  #   #    #    ##  #  #</text>
    <text x="346" y="381" fill="#78e9c5">#      #   #  #   #    #    # # #  # ###</text>
    <text x="346" y="404" fill="#78e9c5">#      #   #  #   #    #    #  ##  #   #</text>
    <text x="346" y="427" fill="#78e9c5">#####   ###   ####   #####  #   #   ####</text>
    <text x="346" y="466" fill="#89938f" font-size="9" letter-spacing="2.4">FOCUS THE GOAL  /  BUILD THE ARCHITECTURE  /  VERIFY THE CHANGE</text>
  </g>

  <g transform="translate(1018 430)" fill="none" stroke-linejoin="round">
    <rect x="-104" y="-108" width="208" height="216" stroke="#78e9c5" stroke-opacity="0.22"/>
    <g stroke="#edf5f1" stroke-opacity="0.36">
      <path d="M-72-34L0-76L75-35L0 7Z"/>
      <path d="M-72-34V51L0 94V7M75-35V50L0 94"/>
      <path d="M-36-55L38-14V72M36-55L-37-13V72"/>
      <path d="M-72 8L0 51L75 9M-36-13L36 29M37-14L-36 29"/>
    </g>
    <g stroke="#78e9c5" stroke-opacity="0.88" stroke-width="1.6">
      <path d="M-72-34L0-76L75-35"/>
      <path d="M75-35V50L0 94"/>
      <path d="M-72 51L0 94"/>
    </g>
    <g fill="#78e9c5">
      <rect x="-75" y="-37" width="6" height="6"/><rect x="-3" y="-79" width="6" height="6"/>
      <rect x="72" y="-38" width="6" height="6"/><rect x="72" y="47" width="6" height="6"/>
      <rect x="-3" y="91" width="6" height="6"/><rect x="-75" y="48" width="6" height="6"/>
      <rect x="-3" y="4" width="6" height="6"/>
    </g>
    <text x="0" y="134" text-anchor="middle" fill="#edf5f1" stroke="none" font-family="ui-monospace, SFMono-Regular, Menlo, Consolas, monospace" font-size="12" font-weight="700">SUPERDEV</text>
    <text x="0" y="151" text-anchor="middle" fill="#78e9c5" stroke="none" font-family="ui-monospace, SFMono-Regular, Menlo, Consolas, monospace" font-size="9" font-weight="700">BUILD</text>
  </g>

  <g transform="rotate(-3 1110 146)">
    <rect x="1022" y="76" width="176" height="142" fill="#edf5f1" fill-opacity="0.025"/>
    <g clip-path="url(#scannerClip)" font-family="ui-monospace, SFMono-Regular, Menlo, Consolas, monospace" font-size="8" font-weight="700">
      <text x="1037" y="105" fill="#78e9c5" fill-opacity="0.7">SR  { }  OK  [ ]  SR  OK</text>
      <text x="1037" y="127" fill="#edf5f1" fill-opacity="0.18">{ }  SR  [ ]  OK  { }  SR</text>
      <text x="1037" y="149" fill="#78e9c5" fill-opacity="0.58">OK  [ ]  SR  { }  OK  [ ]</text>
      <text x="1037" y="171" fill="#edf5f1" fill-opacity="0.16">SR  OK  { }  [ ]  SR  OK</text>
      <text x="1037" y="193" fill="#edf5f1" fill-opacity="0.14">[ ]  SR  OK  { }  [ ]  SR</text>
    </g>
    <rect x="1028" y="151" width="164" height="25" fill="#78e9c5" fill-opacity="0.08"/>
    <path d="M1028 164H1192" stroke="#78e9c5" stroke-width="1.5"/>
    <path d="M1022 103V76H1049M1171 76H1198V103M1022 191V218H1049M1171 218H1198V191" fill="none" stroke="#78e9c5" stroke-width="1.5"/>
    <text x="1110" y="239" text-anchor="middle" fill="#edf5f1" font-family="ui-monospace, SFMono-Regular, Menlo, Consolas, monospace" font-size="12" font-weight="700">SUPERREVIEW</text>
    <text x="1110" y="256" text-anchor="middle" fill="#78e9c5" font-family="ui-monospace, SFMono-Regular, Menlo, Consolas, monospace" font-size="9" font-weight="700">VERIFY</text>
  </g>

  <g font-family="ui-monospace, SFMono-Regular, Menlo, Consolas, monospace" font-size="9" font-weight="700" letter-spacing="1.6">
    <text x="72" y="48" fill="#edf5f1">SUPERCODING</text>
    <text x="1208" y="48" text-anchor="end" fill="#89938f">THREE CODEX SKILLS. ONE ENGINEERING LOOP.</text>
    <text x="72" y="600" fill="#78e9c5">GOAL</text>
    <text x="116" y="600" fill="#89938f">ARCHITECTURE</text>
    <text x="226" y="600" fill="#89938f">REVIEW</text>
    <text x="1208" y="600" text-anchor="end" fill="#89938f">FIGHTHEYYY / 2026</text>
  </g>
</svg>
